<?xml version="1.0" standalone="no"?>
<!DOCTYPE svg PUBLIC "-//W3C//DTD SVG 20010904//EN"
 "http://www.w3.org/TR/2001/REC-SVG-20010904/DTD/svg10.dtd">
<svg version="1.0" xmlns="http://www.w3.org/2000/svg"
 width="640.000000pt" height="640.000000pt" viewBox="0 0 640.000000 640.000000"
 preserveAspectRatio="xMidYMid meet">
<metadata>
Created by potrace 1.14, written by Peter Selinger 2001-2017
</metadata>
<g transform="translate(0.000000,640.000000) scale(0.100000,-0.100000)"
fill="#000000" stroke="none">
<path d="M1570 5694 c0 -30 3 -54 8 -55 4 0 32 -3 62 -4 231 -15 328 -73 355
-213 2 -9 4 -17 5 -17 11 0 13 -339 14 -1780 1 -1584 -1 -1827 -12 -1849 -3
-4 -6 -27 -7 -50 -3 -65 -18 -146 -45 -246 -67 -253 -171 -401 -342 -490 -43
-23 -78 -38 -78 -34 0 3 -6 2 -13 -4 -21 -17 -134 -38 -216 -41 -41 -1 -43 -3
-39 -26 3 -14 1 -25 -3 -25 -5 0 -4 -11 1 -24 5 -13 6 -27 2 -30 -9 -10 200 6
267 19 108 22 214 56 301 98 47 22 87 44 88 49 2 4 8 8 13 8 11 0 9 -2 104 77
69 57 81 69 140 134 38 43 85 106 85 114 0 3 8 15 19 26 35 38 137 264 146
324 1 11 3 20 4 20 4 0 11 36 16 73 2 18 7 37 10 42 4 6 8 30 11 55 2 24 8 55
13 68 5 14 5 30 0 40 -6 9 -6 17 -1 17 5 0 9 6 9 13 1 6 4 41 7 77 33 364 35
504 37 1977 1 683 6 1270 10 1305 29 215 101 274 364 293 28 2 55 4 62 4 7 1
12 21 12 55 l0 55 -162 -6 c-210 -9 -887 -9 -1089 -1 l-158 7 0 -55z"/>
<path d="M3405 5697 c1 -29 3 -54 4 -57 0 -3 27 -6 59 -7 142 -4 240 -33 296
-88 31 -30 67 -94 65 -113 -1 -4 0 -9 1 -12 5 -14 11 -63 15 -135 6 -99 6
-2953 0 -3015 -8 -83 -23 -137 -51 -187 -40 -69 -110 -101 -262 -119 -30 -3
-63 -8 -71 -9 -9 -2 -26 -4 -39 -4 -13 -1 -20 -5 -17 -11 3 -5 1 -10 -5 -10
-7 0 -8 -6 -2 -17 4 -10 8 -30 7 -45 l-1 -26 351 6 c450 8 1980 8 2283 0 l234
-6 -6 46 c-6 45 -16 170 -20 242 -1 19 -5 40 -9 47 -4 6 -3 14 2 17 4 3 5 23
1 45 -6 33 -7 676 -1 676 1 0 4 19 6 43 4 40 3 42 -23 43 -36 1 -96 -2 -100
-6 -3 -3 -8 -39 -16 -115 -3 -25 -5 -45 -6 -45 -1 0 -3 -16 -5 -35 -6 -61 -22
-146 -41 -225 -8 -33 -16 -69 -18 -80 -12 -66 -84 -228 -118 -264 -10 -11 -18
-22 -18 -25 0 -9 -65 -72 -100 -98 -62 -44 -157 -88 -231 -104 -13 -3 -31 -7
-39 -9 -8 -2 -40 -6 -70 -10 -30 -4 -66 -9 -80 -11 -40 -7 -659 -6 -725 1
-157 16 -234 66 -261 170 -8 29 -15 65 -21 105 -9 63 -9 2999 1 3089 21 211
96 271 366 296 25 2 52 4 60 4 11 1 15 11 13 38 -1 21 -2 46 -2 55 -1 16 -13
17 -158 11 -197 -8 -897 -9 -1099 -1 l-151 6 2 -51z"/>
</g>
</svg>
